<?xml version="1.0" encoding="UTF-8"?> <svg xmlns="http://www.w3.org/2000/svg" xmlns:xlink="http://www.w3.org/1999/xlink" width="1300px" height="600px" viewBox="0 0 1300 600" version="1.1"><title>undefinedofferte-luce-e-gas-hero</title><defs><filter x="-3.3%" y="-11.2%" width="106.6%" height="122.5%" id="filter-1"><feGaussianBlur stdDeviation="12" in="SourceGraphic"></feGaussianBlur></filter><filter x="-3.3%" y="-11.2%" width="106.6%" height="122.5%" id="filter-2"><feGaussianBlur stdDeviation="12" in="SourceGraphic"></feGaussianBlur></filter><text id="text-3" font-family="Phosphate-Inline, Phosphate" font-size="180" font-weight="normal" fill="#CD2341"><tspan x="218.06" y="309">risparmia</tspan><tspan x="107" y="469">su gas e luce</tspan></text><filter x="-1.0%" y="-3.3%" width="101.9%" height="106.6%" id="filter-4"><feOffset dx="-1" dy="1" in="SourceAlpha" result="shadowOffsetOuter1"></feOffset><feGaussianBlur stdDeviation="2" in="shadowOffsetOuter1" result="shadowBlurOuter1"></feGaussianBlur><feColorMatrix values="0 0 0 0 0 0 0 0 0 0 0 0 0 0 0 0 0 0 0.8 0" type="matrix" in="shadowBlurOuter1" result="shadowMatrixOuter1"></feColorMatrix><feOffset dx="1" dy="-1" in="SourceAlpha" result="shadowOffsetOuter2"></feOffset><feGaussianBlur stdDeviation="2" in="shadowOffsetOuter2" result="shadowBlurOuter2"></feGaussianBlur><feColorMatrix values="0 0 0 0 0 0 0 0 0 0 0 0 0 0 0 0 0 0 0.8 0" type="matrix" in="shadowBlurOuter2" result="shadowMatrixOuter2"></feColorMatrix><feMerge><feMergeNode in="shadowMatrixOuter1"></feMergeNode><feMergeNode in="shadowMatrixOuter2"></feMergeNode></feMerge></filter><filter x="-3.3%" y="-12.6%" width="106.7%" height="125.2%" id="filter-5"><feGaussianBlur stdDeviation="12" in="SourceGraphic"></feGaussianBlur></filter><path d="M262.82,290 L262.82,259.58 L280.82,290 L325.82,290 L303.32,250.4 C306.32,248.24 309.02,245.6 311.42,242.48 C313.46,239.72 315.32,236.24 317,232.04 C318.68,227.84 319.52,222.74 319.52,216.74 C319.52,209.18 318.17,202.49 315.47,196.67 C312.77,190.85 309.02,185.96 304.22,182 C299.42,178.04 293.75,175.04 287.21,173 C280.67,170.96 273.56,169.94 265.88,169.94 L265.88,169.94 L224.48,169.94 L224.48,290 L262.82,290 Z M247.16,275.6 L242.48,275.6 L242.48,184.34 L261.92,184.34 C267.56,184.34 272.78,185.03 277.58,186.41 C282.38,187.79 286.55,189.83 290.09,192.53 C293.63,195.23 296.42,198.56 298.46,202.52 C300.5,206.48 301.52,211.1 301.52,216.38 C301.52,223.94 299.6,230.09 295.76,234.83 C291.92,239.57 286.76,243.08 280.28,245.36 L280.28,245.36 L298.28,275.6 L292.7,275.6 L275.6,246.8 C271.16,247.76 266.6,248.24 261.92,248.24 L261.92,248.24 L247.16,248.24 L247.16,275.6 Z M261.92,243.92 C272.84,243.92 281.39,241.55 287.57,236.81 C293.75,232.07 296.84,225.26 296.84,216.38 C296.84,207.5 293.75,200.66 287.57,195.86 C281.39,191.06 272.84,188.66 261.92,188.66 L261.92,188.66 L247.16,188.66 L247.16,243.92 L261.92,243.92 Z M264.8,228.98 L262.82,228.98 L262.82,202.34 L264.8,202.34 C269.36,202.34 273.23,203.36 276.41,205.4 C279.59,207.44 281.18,210.86 281.18,215.66 C281.18,220.46 279.59,223.88 276.41,225.92 C273.23,227.96 269.36,228.98 264.8,228.98 L264.8,228.98 Z M370.1,290 L370.1,169.94 L329.42,169.94 L329.42,290 L370.1,290 Z M352.1,275.6 L347.42,275.6 L347.42,184.34 L352.1,184.34 L352.1,275.6 Z M412.04,293.06 C419.6,293.06 426.14,292.07 431.66,290.09 C437.18,288.11 441.71,285.41 445.25,281.99 C448.79,278.57 451.4,274.55 453.08,269.93 C454.76,265.31 455.6,260.36 455.6,255.08 C455.6,250.04 454.79,245.48 453.17,241.4 C451.55,237.32 449.57,233.66 447.23,230.42 C444.89,227.18 442.31,224.3 439.49,221.78 C436.67,219.26 434.09,217.04 431.75,215.12 C429.41,213.2 427.43,211.52 425.81,210.08 C424.19,208.64 423.38,207.44 423.38,206.48 C423.38,205.4 423.74,204.56 424.46,203.96 C425.18,203.36 426.02,202.94 426.98,202.7 C427.94,202.46 428.96,202.31 430.04,202.25 C431.12,202.19 432.02,202.16 432.74,202.16 C434.06,202.16 435.32,202.22 436.52,202.34 C437.72,202.46 438.8,202.58 439.76,202.7 C440.96,202.82 442.04,202.94 443,203.06 L443,203.06 L443,169.4 C440.48,169.04 437.9,168.68 435.26,168.32 C432.98,168.08 430.4,167.81 427.52,167.51 C424.64,167.21 421.76,167.06 418.88,167.06 C413.36,167.06 408.17,167.81 403.31,169.31 C398.45,170.81 394.22,173 390.62,175.88 C387.02,178.76 384.2,182.36 382.16,186.68 C380.12,191 379.1,195.98 379.1,201.62 C379.1,206.66 379.94,211.13 381.62,215.03 C383.3,218.93 385.43,222.44 388.01,225.56 C390.59,228.68 393.35,231.44 396.29,233.84 C399.23,236.24 401.99,238.43 404.57,240.41 C407.15,242.39 409.28,244.19 410.96,245.81 C412.64,247.43 413.48,249.02 413.48,250.58 C413.48,254.66 410.72,256.7 405.2,256.7 C402.08,256.7 398.99,256.52 395.93,256.16 C392.87,255.8 390.14,255.32 387.74,254.72 C384.86,254.24 382.1,253.58 379.46,252.74 L379.46,252.74 L379.46,288.74 C382.34,289.58 385.52,290.3 389,290.9 C392,291.5 395.45,292.01 399.35,292.43 C403.25,292.85 407.48,293.06 412.04,293.06 Z M410.96,276.14 C409.04,276.14 407.15,276.05 405.29,275.87 C403.43,275.69 401.66,275.48 399.98,275.24 C398.06,275 396.26,274.7 394.58,274.34 L394.58,274.34 L394.58,269.66 C396.26,270.02 398,270.32 399.8,270.56 C403.16,271.16 406.88,271.46 410.96,271.46 C417.8,271.46 423.17,269.96 427.07,266.96 C430.97,263.96 432.92,259.58 432.92,253.82 C432.92,250.7 432.05,247.7 430.31,244.82 C428.57,241.94 426.35,239.15 423.65,236.45 C420.95,233.75 418.07,231.08 415.01,228.44 C411.95,225.8 409.07,223.07 406.37,220.25 C403.67,217.43 401.45,214.55 399.71,211.61 C397.97,208.67 397.1,205.52 397.1,202.16 C397.1,195.92 399.2,191.33 403.4,188.39 C407.6,185.45 412.94,183.98 419.42,183.98 C420.5,183.98 421.55,184.01 422.57,184.07 C423.59,184.13 424.52,184.22 425.36,184.34 C426.32,184.46 427.22,184.52 428.06,184.52 L428.06,184.52 L428.06,189.2 C427.1,189.2 426.14,189.14 425.18,189.02 C424.22,188.9 423.23,188.81 422.21,188.75 C421.19,188.69 420.2,188.66 419.24,188.66 C413.12,188.66 408.68,189.83 405.92,192.17 C403.16,194.51 401.78,197.84 401.78,202.16 C401.78,205.04 402.65,207.83 404.39,210.53 C406.13,213.23 408.35,215.93 411.05,218.63 C413.75,221.33 416.63,224 419.69,226.64 C422.75,229.28 425.63,232.04 428.33,234.92 C431.03,237.8 433.25,240.8 434.99,243.92 C436.73,247.04 437.6,250.34 437.6,253.82 C437.6,257.9 436.85,261.35 435.35,264.17 C433.85,266.99 431.84,269.3 429.32,271.1 C426.8,272.9 423.95,274.19 420.77,274.97 C417.59,275.75 414.32,276.14 410.96,276.14 Z M502.04,290 L502.04,261.38 C509.72,261.38 516.89,260.54 523.55,258.86 C530.21,257.18 536.03,254.54 541.01,250.94 C545.99,247.34 549.92,242.63 552.8,236.81 C555.68,230.99 557.12,223.94 557.12,215.66 C557.12,207.38 555.68,200.33 552.8,194.51 C549.92,188.69 545.99,183.98 541.01,180.38 C536.03,176.78 530.21,174.14 523.55,172.46 C516.89,170.78 509.72,169.94 502.04,169.94 L502.04,169.94 L463.7,169.94 L463.7,290 L502.04,290 Z M486.38,275.6 L481.7,275.6 L481.7,184.34 L502.04,184.34 C507.44,184.34 512.45,184.97 517.07,186.23 C521.69,187.49 525.68,189.38 529.04,191.9 C532.4,194.42 535.01,197.66 536.87,201.62 C538.73,205.58 539.66,210.26 539.66,215.66 C539.66,221.06 538.73,225.74 536.87,229.7 C535.01,233.66 532.4,236.9 529.04,239.42 C525.68,241.94 521.69,243.83 517.07,245.09 C512.45,246.35 507.44,246.98 502.04,246.98 L502.04,246.98 L486.38,246.98 L486.38,275.6 Z M502.04,242.66 C506.36,242.66 510.47,242.21 514.37,241.31 C518.27,240.41 521.72,238.94 524.72,236.9 C527.72,234.86 530.12,232.1 531.92,228.62 C533.72,225.14 534.62,220.82 534.62,215.66 C534.62,210.5 533.72,206.18 531.92,202.7 C530.12,199.22 527.72,196.46 524.72,194.42 C521.72,192.38 518.27,190.91 514.37,190.01 C510.47,189.11 506.36,188.66 502.04,188.66 L502.04,188.66 L486.38,188.66 L486.38,242.66 L502.04,242.66 Z M503.66,228.98 L502.04,228.98 L502.04,202.34 L503.66,202.34 C508.7,202.34 512.33,203.51 514.55,205.85 C516.77,208.19 517.88,211.46 517.88,215.66 C517.88,219.86 516.77,223.13 514.55,225.47 C512.33,227.81 508.7,228.98 503.66,228.98 L503.66,228.98 Z M594.02,290 L597.98,279.2 L634.34,279.2 L638.3,290 L676.1,290 L630.56,169.94 L601.76,169.94 L556.22,290 L594.02,290 Z M583.04,275.6 L578,275.6 L612.74,184.34 L619.58,184.34 L654.32,275.6 L649.28,275.6 L645.86,266.6 L586.46,266.6 L583.04,275.6 Z M644.24,262.28 L616.16,188.66 L588.08,262.28 L644.24,262.28 Z M624.26,252.74 L608.06,252.74 L616.16,231.68 L624.26,252.74 Z M717.14,290 L717.14,259.58 L735.14,290 L780.14,290 L757.64,250.4 C760.64,248.24 763.34,245.6 765.74,242.48 C767.78,239.72 769.64,236.24 771.32,232.04 C773,227.84 773.84,222.74 773.84,216.74 C773.84,209.18 772.49,202.49 769.79,196.67 C767.09,190.85 763.34,185.96 758.54,182 C753.74,178.04 748.07,175.04 741.53,173 C734.99,170.96 727.88,169.94 720.2,169.94 L720.2,169.94 L678.8,169.94 L678.8,290 L717.14,290 Z M701.48,275.6 L696.8,275.6 L696.8,184.34 L716.24,184.34 C721.88,184.34 727.1,185.03 731.9,186.41 C736.7,187.79 740.87,189.83 744.41,192.53 C747.95,195.23 750.74,198.56 752.78,202.52 C754.82,206.48 755.84,211.1 755.84,216.38 C755.84,223.94 753.92,230.09 750.08,234.83 C746.24,239.57 741.08,243.08 734.6,245.36 L734.6,245.36 L752.6,275.6 L747.02,275.6 L729.92,246.8 C725.48,247.76 720.92,248.24 716.24,248.24 L716.24,248.24 L701.48,248.24 L701.48,275.6 Z M716.24,243.92 C727.16,243.92 735.71,241.55 741.89,236.81 C748.07,232.07 751.16,225.26 751.16,216.38 C751.16,207.5 748.07,200.66 741.89,195.86 C735.71,191.06 727.16,188.66 716.24,188.66 L716.24,188.66 L701.48,188.66 L701.48,243.92 L716.24,243.92 Z M719.12,228.98 L717.14,228.98 L717.14,202.34 L719.12,202.34 C723.68,202.34 727.55,203.36 730.73,205.4 C733.91,207.44 735.5,210.86 735.5,215.66 C735.5,220.46 733.91,223.88 730.73,225.92 C727.55,227.96 723.68,228.98 719.12,228.98 L719.12,228.98 Z M822.08,290 L822.08,246.8 L846.74,282.8 L871.22,246.8 L871.22,290 L909.56,290 L909.56,169.94 L877.88,169.94 L846.74,216.02 L815.42,169.94 L783.74,169.94 L783.74,290 L822.08,290 Z M806.42,275.6 L801.74,275.6 L801.74,184.34 L806.42,184.34 L846.74,243.56 L886.88,184.34 L891.56,184.34 L891.56,275.6 L886.88,275.6 L886.88,192.98 L846.74,251.66 L806.42,192.98 L806.42,275.6 Z M962.84,290 L962.84,169.94 L922.16,169.94 L922.16,290 L962.84,290 Z M944.84,275.6 L940.16,275.6 L940.16,184.34 L944.84,184.34 L944.84,275.6 Z M1003.34,290 L1007.3,279.2 L1043.66,279.2 L1047.62,290 L1085.42,290 L1039.88,169.94 L1011.08,169.94 L965.54,290 L1003.34,290 Z M992.36,275.6 L987.32,275.6 L1022.06,184.34 L1028.9,184.34 L1063.64,275.6 L1058.6,275.6 L1055.18,266.6 L995.78,266.6 L992.36,275.6 Z M1053.56,262.28 L1025.48,188.66 L997.4,262.28 L1053.56,262.28 Z M1033.58,252.74 L1017.38,252.74 L1025.48,231.68 L1033.58,252.74 Z M142.76,453.06 C150.32,453.06 156.86,452.07 162.38,450.09 C167.9,448.11 172.43,445.41 175.97,441.99 C179.51,438.57 182.12,434.55 183.8,429.93 C185.48,425.31 186.32,420.36 186.32,415.08 C186.32,410.04 185.51,405.48 183.89,401.4 C182.27,397.32 180.29,393.66 177.95,390.42 C175.61,387.18 173.03,384.3 170.21,381.78 C167.39,379.26 164.81,377.04 162.47,375.12 C160.13,373.2 158.15,371.52 156.53,370.08 C154.91,368.64 154.1,367.44 154.1,366.48 C154.1,365.4 154.46,364.56 155.18,363.96 C155.9,363.36 156.74,362.94 157.7,362.7 C158.66,362.46 159.68,362.31 160.76,362.25 C161.84,362.19 162.74,362.16 163.46,362.16 C164.78,362.16 166.04,362.22 167.24,362.34 C168.44,362.46 169.52,362.58 170.48,362.7 C171.68,362.82 172.76,362.94 173.72,363.06 L173.72,363.06 L173.72,329.4 C171.2,329.04 168.62,328.68 165.98,328.32 C163.7,328.08 161.12,327.81 158.24,327.51 C155.36,327.21 152.48,327.06 149.6,327.06 C144.08,327.06 138.89,327.81 134.03,329.31 C129.17,330.81 124.94,333 121.34,335.88 C117.74,338.76 114.92,342.36 112.88,346.68 C110.84,351 109.82,355.98 109.82,361.62 C109.82,366.66 110.66,371.13 112.34,375.03 C114.02,378.93 116.15,382.44 118.73,385.56 C121.31,388.68 124.07,391.44 127.01,393.84 C129.95,396.24 132.71,398.43 135.29,400.41 C137.87,402.39 140,404.19 141.68,405.81 C143.36,407.43 144.2,409.02 144.2,410.58 C144.2,414.66 141.44,416.7 135.92,416.7 C132.8,416.7 129.71,416.52 126.65,416.16 C123.59,415.8 120.86,415.32 118.46,414.72 C115.58,414.24 112.82,413.58 110.18,412.74 L110.18,412.74 L110.18,448.74 C113.06,449.58 116.24,450.3 119.72,450.9 C122.72,451.5 126.17,452.01 130.07,452.43 C133.97,452.85 138.2,453.06 142.76,453.06 Z M141.68,436.14 C139.76,436.14 137.87,436.05 136.01,435.87 C134.15,435.69 132.38,435.48 130.7,435.24 C128.78,435 126.98,434.7 125.3,434.34 L125.3,434.34 L125.3,429.66 C126.98,430.02 128.72,430.32 130.52,430.56 C133.88,431.16 137.6,431.46 141.68,431.46 C148.52,431.46 153.89,429.96 157.79,426.96 C161.69,423.96 163.64,419.58 163.64,413.82 C163.64,410.7 162.77,407.7 161.03,404.82 C159.29,401.94 157.07,399.15 154.37,396.45 C151.67,393.75 148.79,391.08 145.73,388.44 C142.67,385.8 139.79,383.07 137.09,380.25 C134.39,377.43 132.17,374.55 130.43,371.61 C128.69,368.67 127.82,365.52 127.82,362.16 C127.82,355.92 129.92,351.33 134.12,348.39 C138.32,345.45 143.66,343.98 150.14,343.98 C151.22,343.98 152.27,344.01 153.29,344.07 C154.31,344.13 155.24,344.22 156.08,344.34 C157.04,344.46 157.94,344.52 158.78,344.52 L158.78,344.52 L158.78,349.2 C157.82,349.2 156.86,349.14 155.9,349.02 C154.94,348.9 153.95,348.81 152.93,348.75 C151.91,348.69 150.92,348.66 149.96,348.66 C143.84,348.66 139.4,349.83 136.64,352.17 C133.88,354.51 132.5,357.84 132.5,362.16 C132.5,365.04 133.37,367.83 135.11,370.53 C136.85,373.23 139.07,375.93 141.77,378.63 C144.47,381.33 147.35,384 150.41,386.64 C153.47,389.28 156.35,392.04 159.05,394.92 C161.75,397.8 163.97,400.8 165.71,403.92 C167.45,407.04 168.32,410.34 168.32,413.82 C168.32,417.9 167.57,421.35 166.07,424.17 C164.57,426.99 162.56,429.3 160.04,431.1 C157.52,432.9 154.67,434.19 151.49,434.97 C148.31,435.75 145.04,436.14 141.68,436.14 Z M243.56,453.06 C251.12,453.06 257.96,452.1 264.08,450.18 C270.2,448.26 275.45,445.38 279.83,441.54 C284.21,437.7 287.57,432.84 289.91,426.96 C292.25,421.08 293.42,414.18 293.42,406.26 L293.42,406.26 L293.42,329.94 L254.9,329.94 L254.9,404.64 C254.9,408.84 254.03,412.05 252.29,414.27 C250.55,416.49 247.64,417.6 243.56,417.6 C239.48,417.6 236.57,416.49 234.83,414.27 C233.09,412.05 232.22,408.84 232.22,404.64 L232.22,404.64 L232.22,329.94 L193.88,329.94 L193.88,406.26 C193.88,414.18 195.05,421.08 197.39,426.96 C199.73,432.84 203.06,437.7 207.38,441.54 C211.7,445.38 216.92,448.26 223.04,450.18 C229.16,452.1 236,453.06 243.56,453.06 Z M243.56,436.14 C233.36,436.14 225.53,433.47 220.07,428.13 C214.61,422.79 211.88,415.08 211.88,405 L211.88,405 L211.88,344.34 L216.56,344.34 L216.56,405 C216.56,422.64 225.56,431.46 243.56,431.46 C261.56,431.46 270.56,422.64 270.56,405 L270.56,405 L270.56,344.34 L275.42,344.34 L275.42,405 C275.42,415.08 272.66,422.79 267.14,428.13 C261.62,433.47 253.76,436.14 243.56,436.14 Z M401.78,453.06 C407.66,453.06 413.36,452.28 418.88,450.72 C424.4,449.16 429.53,446.94 434.27,444.06 C439.01,441.18 443.3,437.73 447.14,433.71 C450.98,429.69 454.28,425.22 457.04,420.3 L457.04,420.3 L457.04,380.34 L410.78,380.34 L410.78,405.54 L421.58,405.54 C419.18,408.54 416.3,410.91 412.94,412.65 C409.58,414.39 405.86,415.26 401.78,415.26 C398.3,415.26 395.03,414.63 391.97,413.37 C388.91,412.11 386.24,410.37 383.96,408.15 C381.68,405.93 379.88,403.26 378.56,400.14 C377.24,397.02 376.58,393.66 376.58,390.06 C376.58,386.46 377.18,383.1 378.38,379.98 C379.58,376.86 381.23,374.19 383.33,371.97 C385.43,369.75 387.92,368.01 390.8,366.75 C393.68,365.49 396.86,364.86 400.34,364.86 C403.46,364.86 406.64,365.37 409.88,366.39 C413.12,367.41 415.82,368.88 417.98,370.8 L417.98,370.8 L439.76,339.84 C437.12,337.56 433.82,335.46 429.86,333.54 C426.5,331.86 422.36,330.36 417.44,329.04 C412.52,327.72 406.7,327.06 399.98,327.06 C391.34,327.06 383.27,328.71 375.77,332.01 C368.27,335.31 361.79,339.81 356.33,345.51 C350.87,351.21 346.58,357.9 343.46,365.58 C340.34,373.26 338.78,381.42 338.78,390.06 C338.78,398.94 340.43,407.22 343.73,414.9 C347.03,422.58 351.53,429.24 357.23,434.88 C362.93,440.52 369.62,444.96 377.3,448.2 C384.98,451.44 393.14,453.06 401.78,453.06 Z M401.78,436.14 C395.42,436.14 389.45,435 383.87,432.72 C378.29,430.44 373.4,427.29 369.2,423.27 C365,419.25 361.7,414.42 359.3,408.78 C356.9,403.14 355.7,396.9 355.7,390.06 C355.7,383.22 356.87,376.98 359.21,371.34 C361.55,365.7 364.76,360.87 368.84,356.85 C372.92,352.83 377.72,349.68 383.24,347.4 C388.76,345.12 394.7,343.98 401.06,343.98 C403.82,343.98 406.34,344.16 408.62,344.52 C410.9,344.88 412.88,345.3 414.56,345.78 C416.48,346.26 418.22,346.86 419.78,347.58 L419.78,347.58 L416.9,351.72 C415.46,351.24 413.9,350.76 412.22,350.28 C410.78,349.92 409.1,349.56 407.18,349.2 C405.26,348.84 403.22,348.66 401.06,348.66 C395.3,348.66 389.96,349.65 385.04,351.63 C380.12,353.61 375.83,356.43 372.17,360.09 C368.51,363.75 365.63,368.13 363.53,373.23 C361.43,378.33 360.38,383.94 360.38,390.06 C360.38,396.18 361.46,401.79 363.62,406.89 C365.78,411.99 368.75,416.37 372.53,420.03 C376.31,423.69 380.69,426.51 385.67,428.49 C390.65,430.47 396.02,431.46 401.78,431.46 C408.98,431.46 415.55,429.84 421.49,426.6 C427.43,423.36 432.26,418.98 435.98,413.46 L435.98,413.46 L435.98,395.46 L421.58,395.46 L421.58,391.14 L440.66,391.14 L440.66,414.72 C436.46,421.2 431,426.39 424.28,430.29 C417.56,434.19 410.06,436.14 401.78,436.14 Z M494.84,450 L498.8,439.2 L535.16,439.2 L539.12,450 L576.92,450 L531.38,329.94 L502.58,329.94 L457.04,450 L494.84,450 Z M483.86,435.6 L478.82,435.6 L513.56,344.34 L520.4,344.34 L555.14,435.6 L550.1,435.6 L546.68,426.6 L487.28,426.6 L483.86,435.6 Z M545.06,422.28 L516.98,348.66 L488.9,422.28 L545.06,422.28 Z M525.08,412.74 L508.88,412.74 L516.98,391.68 L525.08,412.74 Z M608.96,453.06 C616.52,453.06 623.06,452.07 628.58,450.09 C634.1,448.11 638.63,445.41 642.17,441.99 C645.71,438.57 648.32,434.55 650,429.93 C651.68,425.31 652.52,420.36 652.52,415.08 C652.52,410.04 651.71,405.48 650.09,401.4 C648.47,397.32 646.49,393.66 644.15,390.42 C641.81,387.18 639.23,384.3 636.41,381.78 C633.59,379.26 631.01,377.04 628.67,375.12 C626.33,373.2 624.35,371.52 622.73,370.08 C621.11,368.64 620.3,367.44 620.3,366.48 C620.3,365.4 620.66,364.56 621.38,363.96 C622.1,363.36 622.94,362.94 623.9,362.7 C624.86,362.46 625.88,362.31 626.96,362.25 C628.04,362.19 628.94,362.16 629.66,362.16 C630.98,362.16 632.24,362.22 633.44,362.34 C634.64,362.46 635.72,362.58 636.68,362.7 C637.88,362.82 638.96,362.94 639.92,363.06 L639.92,363.06 L639.92,329.4 C637.4,329.04 634.82,328.68 632.18,328.32 C629.9,328.08 627.32,327.81 624.44,327.51 C621.56,327.21 618.68,327.06 615.8,327.06 C610.28,327.06 605.09,327.81 600.23,329.31 C595.37,330.81 591.14,333 587.54,335.88 C583.94,338.76 581.12,342.36 579.08,346.68 C577.04,351 576.02,355.98 576.02,361.62 C576.02,366.66 576.86,371.13 578.54,375.03 C580.22,378.93 582.35,382.44 584.93,385.56 C587.51,388.68 590.27,391.44 593.21,393.84 C596.15,396.24 598.91,398.43 601.49,400.41 C604.07,402.39 606.2,404.19 607.88,405.81 C609.56,407.43 610.4,409.02 610.4,410.58 C610.4,414.66 607.64,416.7 602.12,416.7 C599,416.7 595.91,416.52 592.85,416.16 C589.79,415.8 587.06,415.32 584.66,414.72 C581.78,414.24 579.02,413.58 576.38,412.74 L576.38,412.74 L576.38,448.74 C579.26,449.58 582.44,450.3 585.92,450.9 C588.92,451.5 592.37,452.01 596.27,452.43 C600.17,452.85 604.4,453.06 608.96,453.06 Z M607.88,436.14 C605.96,436.14 604.07,436.05 602.21,435.87 C600.35,435.69 598.58,435.48 596.9,435.24 C594.98,435 593.18,434.7 591.5,434.34 L591.5,434.34 L591.5,429.66 C593.18,430.02 594.92,430.32 596.72,430.56 C600.08,431.16 603.8,431.46 607.88,431.46 C614.72,431.46 620.09,429.96 623.99,426.96 C627.89,423.96 629.84,419.58 629.84,413.82 C629.84,410.7 628.97,407.7 627.23,404.82 C625.49,401.94 623.27,399.15 620.57,396.45 C617.87,393.75 614.99,391.08 611.93,388.44 C608.87,385.8 605.99,383.07 603.29,380.25 C600.59,377.43 598.37,374.55 596.63,371.61 C594.89,368.67 594.02,365.52 594.02,362.16 C594.02,355.92 596.12,351.33 600.32,348.39 C604.52,345.45 609.86,343.98 616.34,343.98 C617.42,343.98 618.47,344.01 619.49,344.07 C620.51,344.13 621.44,344.22 622.28,344.34 C623.24,344.46 624.14,344.52 624.98,344.52 L624.98,344.52 L624.98,349.2 C624.02,349.2 623.06,349.14 622.1,349.02 C621.14,348.9 620.15,348.81 619.13,348.75 C618.11,348.69 617.12,348.66 616.16,348.66 C610.04,348.66 605.6,349.83 602.84,352.17 C600.08,354.51 598.7,357.84 598.7,362.16 C598.7,365.04 599.57,367.83 601.31,370.53 C603.05,373.23 605.27,375.93 607.97,378.63 C610.67,381.33 613.55,384 616.61,386.64 C619.67,389.28 622.55,392.04 625.25,394.92 C627.95,397.8 630.17,400.8 631.91,403.92 C633.65,407.04 634.52,410.34 634.52,413.82 C634.52,417.9 633.77,421.35 632.27,424.17 C630.77,426.99 628.76,429.3 626.24,431.1 C623.72,432.9 620.87,434.19 617.69,434.97 C614.51,435.75 611.24,436.14 607.88,436.14 Z M768.62,450 L768.62,418.5 L734.96,418.5 L734.96,404.64 L766.82,404.64 L766.82,374.76 L734.96,374.76 L734.96,361.44 L767.36,361.44 L767.36,329.94 L696.62,329.94 L696.62,450 L768.62,450 Z M755.3,435.6 L714.62,435.6 L714.62,344.34 L755.3,344.34 L755.3,348.66 L719.3,348.66 L719.3,387.54 L753.5,387.54 L753.5,391.86 L719.3,391.86 L719.3,431.28 L755.3,431.28 L755.3,435.6 Z M888.5,450 L888.5,418.5 L855.38,418.5 L855.38,329.94 L815.42,329.94 L815.42,450 L888.5,450 Z M878.42,435.6 L833.42,435.6 L833.42,344.34 L838.1,344.34 L838.1,431.28 L878.42,431.28 L878.42,435.6 Z M943.94,453.06 C951.5,453.06 958.34,452.1 964.46,450.18 C970.58,448.26 975.83,445.38 980.21,441.54 C984.59,437.7 987.95,432.84 990.29,426.96 C992.63,421.08 993.8,414.18 993.8,406.26 L993.8,406.26 L993.8,329.94 L955.28,329.94 L955.28,404.64 C955.28,408.84 954.41,412.05 952.67,414.27 C950.93,416.49 948.02,417.6 943.94,417.6 C939.86,417.6 936.95,416.49 935.21,414.27 C933.47,412.05 932.6,408.84 932.6,404.64 L932.6,404.64 L932.6,329.94 L894.26,329.94 L894.26,406.26 C894.26,414.18 895.43,421.08 897.77,426.96 C900.11,432.84 903.44,437.7 907.76,441.54 C912.08,445.38 917.3,448.26 923.42,450.18 C929.54,452.1 936.38,453.06 943.94,453.06 Z M943.94,436.14 C933.74,436.14 925.91,433.47 920.45,428.13 C914.99,422.79 912.26,415.08 912.26,405 L912.26,405 L912.26,344.34 L916.94,344.34 L916.94,405 C916.94,422.64 925.94,431.46 943.94,431.46 C961.94,431.46 970.94,422.64 970.94,405 L970.94,405 L970.94,344.34 L975.8,344.34 L975.8,405 C975.8,415.08 973.04,422.79 967.52,428.13 C962,433.47 954.14,436.14 943.94,436.14 Z M1067.96,453.06 C1074.92,453.06 1081.1,452.34 1086.5,450.9 C1091.9,449.46 1096.52,447.9 1100.36,446.22 C1104.8,444.18 1108.64,441.84 1111.88,439.2 L1111.88,439.2 L1092.98,405.9 C1091.18,407.7 1089.08,409.26 1086.68,410.58 C1084.64,411.78 1082.12,412.86 1079.12,413.82 C1076.12,414.78 1072.7,415.26 1068.86,415.26 C1065.02,415.26 1061.48,414.6 1058.24,413.28 C1055,411.96 1052.18,410.16 1049.78,407.88 C1047.38,405.6 1045.49,402.93 1044.11,399.87 C1042.73,396.81 1042.04,393.54 1042.04,390.06 C1042.04,386.58 1042.7,383.31 1044.02,380.25 C1045.34,377.19 1047.17,374.52 1049.51,372.24 C1051.85,369.96 1054.58,368.16 1057.7,366.84 C1060.82,365.52 1064.24,364.86 1067.96,364.86 C1071.56,364.86 1074.77,365.31 1077.59,366.21 C1080.41,367.11 1082.84,368.04 1084.88,369 C1087.16,370.32 1089.26,371.7 1091.18,373.14 L1091.18,373.14 L1110.08,339.84 C1106.84,337.56 1103,335.46 1098.56,333.54 C1094.72,331.86 1090.13,330.36 1084.79,329.04 C1079.45,327.72 1073.36,327.06 1066.52,327.06 C1057.88,327.06 1049.72,328.53 1042.04,331.47 C1034.36,334.41 1027.64,338.64 1021.88,344.16 C1016.12,349.68 1011.56,356.31 1008.2,364.05 C1004.84,371.79 1003.16,380.46 1003.16,390.06 C1003.16,399.42 1004.78,407.97 1008.02,415.71 C1011.26,423.45 1015.76,430.08 1021.52,435.6 C1027.28,441.12 1034.12,445.41 1042.04,448.47 C1049.96,451.53 1058.6,453.06 1067.96,453.06 Z M1068.5,436.14 C1062.02,436.14 1055.9,435.06 1050.14,432.9 C1044.38,430.74 1039.34,427.65 1035.02,423.63 C1030.7,419.61 1027.31,414.78 1024.85,409.14 C1022.39,403.5 1021.16,397.14 1021.16,390.06 C1021.16,383.1 1022.45,376.77 1025.03,371.07 C1027.61,365.37 1031.03,360.51 1035.29,356.49 C1039.55,352.47 1044.47,349.38 1050.05,347.22 C1055.63,345.06 1061.48,343.98 1067.6,343.98 C1071.08,343.98 1074.14,344.22 1076.78,344.7 C1079.42,345.18 1081.76,345.72 1083.8,346.32 C1085.96,347.04 1088,347.82 1089.92,348.66 L1089.92,348.66 L1087.4,352.98 C1085.96,352.14 1084.22,351.42 1082.18,350.82 C1080.5,350.22 1078.43,349.71 1075.97,349.29 C1073.51,348.87 1070.72,348.66 1067.6,348.66 C1061.24,348.66 1055.48,349.74 1050.32,351.9 C1045.16,354.06 1040.78,357 1037.18,360.72 C1033.58,364.44 1030.79,368.82 1028.81,373.86 C1026.83,378.9 1025.84,384.3 1025.84,390.06 C1025.84,395.82 1026.83,401.22 1028.81,406.26 C1030.79,411.3 1033.61,415.68 1037.27,419.4 C1040.93,423.12 1045.4,426.06 1050.68,428.22 C1055.96,430.38 1061.9,431.46 1068.5,431.46 C1071.86,431.46 1074.8,431.19 1077.32,430.65 C1079.84,430.11 1082,429.48 1083.8,428.76 C1085.84,428.04 1087.64,427.14 1089.2,426.06 L1089.2,426.06 L1091.72,430.38 C1089.92,431.46 1087.88,432.42 1085.6,433.26 C1083.56,433.98 1081.1,434.64 1078.22,435.24 C1075.34,435.84 1072.1,436.14 1068.5,436.14 Z M1188.38,450 L1188.38,418.5 L1154.72,418.5 L1154.72,404.64 L1186.58,404.64 L1186.58,374.76 L1154.72,374.76 L1154.72,361.44 L1187.12,361.44 L1187.12,329.94 L1116.38,329.94 L1116.38,450 L1188.38,450 Z M1175.06,435.6 L1134.38,435.6 L1134.38,344.34 L1175.06,344.34 L1175.06,348.66 L1139.06,348.66 L1139.06,387.54 L1173.26,387.54 L1173.26,391.86 L1139.06,391.86 L1139.06,431.28 L1175.06,431.28 L1175.06,435.6 Z" id="path-6"></path><filter x="-0.7%" y="-2.6%" width="101.4%" height="105.2%" id="filter-7"><feOffset dx="-1" dy="1" in="SourceAlpha" result="shadowOffsetOuter1"></feOffset><feGaussianBlur stdDeviation="2" in="shadowOffsetOuter1" result="shadowBlurOuter1"></feGaussianBlur><feColorMatrix values="0 0 0 0 0 0 0 0 0 0 0 0 0 0 0 0 0 0 0.8 0" type="matrix" in="shadowBlurOuter1" result="shadowMatrixOuter1"></feColorMatrix><feOffset dx="1" dy="-1" in="SourceAlpha" result="shadowOffsetOuter2"></feOffset><feGaussianBlur stdDeviation="2" in="shadowOffsetOuter2" result="shadowBlurOuter2"></feGaussianBlur><feColorMatrix values="0 0 0 0 0 0 0 0 0 0 0 0 0 0 0 0 0 0 0.8 0" type="matrix" in="shadowBlurOuter2" result="shadowMatrixOuter2"></feColorMatrix><feMerge><feMergeNode in="shadowMatrixOuter1"></feMergeNode><feMergeNode in="shadowMatrixOuter2"></feMergeNode></feMerge></filter></defs><g id="Page-1" stroke="none" stroke-width="1" fill="none" fill-rule="evenodd"><g id="offerte-luce-e-gas-hero"><rect fill="#222222" x="0" y="0" width="1300" height="600"></rect><text id="Risparmia-su-gas-e-l" filter="url(#filter-2)" font-family="Phosphate-Inline, Phosphate" font-size="180" font-weight="normal" fill="#CD2341"><tspan x="218.06" y="309">Risparmia</tspan><tspan x="107" y="469">su gas e luce</tspan></text><g id="risparmia-su-gas-e-l" fill="#CD2341" fill-opacity="1"><use filter="url(#filter-4)" xlink:href="#text-3"></use><use xlink:href="#text-3"></use></g></g><g id="undefinedofferte-luce-e-gas-hero"><rect fill="#222222" x="0" y="0" width="1300" height="600"></rect><path d="M262.82,290 L262.82,259.58 L280.82,290 L325.82,290 L303.32,250.4 C306.32,248.24 309.02,245.6 311.42,242.48 C313.46,239.72 315.32,236.24 317,232.04 C318.68,227.84 319.52,222.74 319.52,216.74 C319.52,209.18 318.17,202.49 315.47,196.67 C312.77,190.85 309.02,185.96 304.22,182 C299.42,178.04 293.75,175.04 287.21,173 C280.67,170.96 273.56,169.94 265.88,169.94 L265.88,169.94 L224.48,169.94 L224.48,290 L262.82,290 Z M247.16,275.6 L242.48,275.6 L242.48,184.34 L261.92,184.34 C267.56,184.34 272.78,185.03 277.58,186.41 C282.38,187.79 286.55,189.83 290.09,192.53 C293.63,195.23 296.42,198.56 298.46,202.52 C300.5,206.48 301.52,211.1 301.52,216.38 C301.52,223.94 299.6,230.09 295.76,234.83 C291.92,239.57 286.76,243.08 280.28,245.36 L280.28,245.36 L298.28,275.6 L292.7,275.6 L275.6,246.8 C271.16,247.76 266.6,248.24 261.92,248.24 L261.92,248.24 L247.16,248.24 L247.16,275.6 Z M261.92,243.92 C272.84,243.92 281.39,241.55 287.57,236.81 C293.75,232.07 296.84,225.26 296.84,216.38 C296.84,207.5 293.75,200.66 287.57,195.86 C281.39,191.06 272.84,188.66 261.92,188.66 L261.92,188.66 L247.16,188.66 L247.16,243.92 L261.92,243.92 Z M264.8,228.98 L262.82,228.98 L262.82,202.34 L264.8,202.34 C269.36,202.34 273.23,203.36 276.41,205.4 C279.59,207.44 281.18,210.86 281.18,215.66 C281.18,220.46 279.59,223.88 276.41,225.92 C273.23,227.96 269.36,228.98 264.8,228.98 L264.8,228.98 Z M370.1,290 L370.1,169.94 L329.42,169.94 L329.42,290 L370.1,290 Z M352.1,275.6 L347.42,275.6 L347.42,184.34 L352.1,184.34 L352.1,275.6 Z M412.04,293.06 C419.6,293.06 426.14,292.07 431.66,290.09 C437.18,288.11 441.71,285.41 445.25,281.99 C448.79,278.57 451.4,274.55 453.08,269.93 C454.76,265.31 455.6,260.36 455.6,255.08 C455.6,250.04 454.79,245.48 453.17,241.4 C451.55,237.32 449.57,233.66 447.23,230.42 C444.89,227.18 442.31,224.3 439.49,221.78 C436.67,219.26 434.09,217.04 431.75,215.12 C429.41,213.2 427.43,211.52 425.81,210.08 C424.19,208.64 423.38,207.44 423.38,206.48 C423.38,205.4 423.74,204.56 424.46,203.96 C425.18,203.36 426.02,202.94 426.98,202.7 C427.94,202.46 428.96,202.31 430.04,202.25 C431.12,202.19 432.02,202.16 432.74,202.16 C434.06,202.16 435.32,202.22 436.52,202.34 C437.72,202.46 438.8,202.58 439.76,202.7 C440.96,202.82 442.04,202.94 443,203.06 L443,203.06 L443,169.4 C440.48,169.04 437.9,168.68 435.26,168.32 C432.98,168.08 430.4,167.81 427.52,167.51 C424.64,167.21 421.76,167.06 418.88,167.06 C413.36,167.06 408.17,167.81 403.31,169.31 C398.45,170.81 394.22,173 390.62,175.88 C387.02,178.76 384.2,182.36 382.16,186.68 C380.12,191 379.1,195.98 379.1,201.62 C379.1,206.66 379.94,211.13 381.62,215.03 C383.3,218.93 385.43,222.44 388.01,225.56 C390.59,228.68 393.35,231.44 396.29,233.84 C399.23,236.24 401.99,238.43 404.57,240.41 C407.15,242.39 409.28,244.19 410.96,245.81 C412.64,247.43 413.48,249.02 413.48,250.58 C413.48,254.66 410.72,256.7 405.2,256.7 C402.08,256.7 398.99,256.52 395.93,256.16 C392.87,255.8 390.14,255.32 387.74,254.72 C384.86,254.24 382.1,253.58 379.46,252.74 L379.46,252.74 L379.46,288.74 C382.34,289.58 385.52,290.3 389,290.9 C392,291.5 395.45,292.01 399.35,292.43 C403.25,292.85 407.48,293.06 412.04,293.06 Z M410.96,276.14 C409.04,276.14 407.15,276.05 405.29,275.87 C403.43,275.69 401.66,275.48 399.98,275.24 C398.06,275 396.26,274.7 394.58,274.34 L394.58,274.34 L394.58,269.66 C396.26,270.02 398,270.32 399.8,270.56 C403.16,271.16 406.88,271.46 410.96,271.46 C417.8,271.46 423.17,269.96 427.07,266.96 C430.97,263.96 432.92,259.58 432.92,253.82 C432.92,250.7 432.05,247.7 430.31,244.82 C428.57,241.94 426.35,239.15 423.65,236.45 C420.95,233.75 418.07,231.08 415.01,228.44 C411.95,225.8 409.07,223.07 406.37,220.25 C403.67,217.43 401.45,214.55 399.71,211.61 C397.97,208.67 397.1,205.52 397.1,202.16 C397.1,195.92 399.2,191.33 403.4,188.39 C407.6,185.45 412.94,183.98 419.42,183.98 C420.5,183.98 421.55,184.01 422.57,184.07 C423.59,184.13 424.52,184.22 425.36,184.34 C426.32,184.46 427.22,184.52 428.06,184.52 L428.06,184.52 L428.06,189.2 C427.1,189.2 426.14,189.14 425.18,189.02 C424.22,188.9 423.23,188.81 422.21,188.75 C421.19,188.69 420.2,188.66 419.24,188.66 C413.12,188.66 408.68,189.83 405.92,192.17 C403.16,194.51 401.78,197.84 401.78,202.16 C401.78,205.04 402.65,207.83 404.39,210.53 C406.13,213.23 408.35,215.93 411.05,218.63 C413.75,221.33 416.63,224 419.69,226.64 C422.75,229.28 425.63,232.04 428.33,234.92 C431.03,237.8 433.25,240.8 434.99,243.92 C436.73,247.04 437.6,250.34 437.6,253.82 C437.6,257.9 436.85,261.35 435.35,264.17 C433.85,266.99 431.84,269.3 429.32,271.1 C426.8,272.9 423.95,274.19 420.77,274.97 C417.59,275.75 414.32,276.14 410.96,276.14 Z M502.04,290 L502.04,261.38 C509.72,261.38 516.89,260.54 523.55,258.86 C530.21,257.18 536.03,254.54 541.01,250.94 C545.99,247.34 549.92,242.63 552.8,236.81 C555.68,230.99 557.12,223.94 557.12,215.66 C557.12,207.38 555.68,200.33 552.8,194.51 C549.92,188.69 545.99,183.98 541.01,180.38 C536.03,176.78 530.21,174.14 523.55,172.46 C516.89,170.78 509.72,169.94 502.04,169.94 L502.04,169.94 L463.7,169.94 L463.7,290 L502.04,290 Z M486.38,275.6 L481.7,275.6 L481.7,184.34 L502.04,184.34 C507.44,184.34 512.45,184.97 517.07,186.23 C521.69,187.49 525.68,189.38 529.04,191.9 C532.4,194.42 535.01,197.66 536.87,201.62 C538.73,205.58 539.66,210.26 539.66,215.66 C539.66,221.06 538.73,225.74 536.87,229.7 C535.01,233.66 532.4,236.9 529.04,239.42 C525.68,241.94 521.69,243.83 517.07,245.09 C512.45,246.35 507.44,246.98 502.04,246.98 L502.04,246.98 L486.38,246.98 L486.38,275.6 Z M502.04,242.66 C506.36,242.66 510.47,242.21 514.37,241.31 C518.27,240.41 521.72,238.94 524.72,236.9 C527.72,234.86 530.12,232.1 531.92,228.62 C533.72,225.14 534.62,220.82 534.62,215.66 C534.62,210.5 533.72,206.18 531.92,202.7 C530.12,199.22 527.72,196.46 524.72,194.42 C521.72,192.38 518.27,190.91 514.37,190.01 C510.47,189.11 506.36,188.66 502.04,188.66 L502.04,188.66 L486.38,188.66 L486.38,242.66 L502.04,242.66 Z M503.66,228.98 L502.04,228.98 L502.04,202.34 L503.66,202.34 C508.7,202.34 512.33,203.51 514.55,205.85 C516.77,208.19 517.88,211.46 517.88,215.66 C517.88,219.86 516.77,223.13 514.55,225.47 C512.33,227.81 508.7,228.98 503.66,228.98 L503.66,228.98 Z M594.02,290 L597.98,279.2 L634.34,279.2 L638.3,290 L676.1,290 L630.56,169.94 L601.76,169.94 L556.22,290 L594.02,290 Z M583.04,275.6 L578,275.6 L612.74,184.34 L619.58,184.34 L654.32,275.6 L649.28,275.6 L645.86,266.6 L586.46,266.6 L583.04,275.6 Z M644.24,262.28 L616.16,188.66 L588.08,262.28 L644.24,262.28 Z M624.26,252.74 L608.06,252.74 L616.16,231.68 L624.26,252.74 Z M717.14,290 L717.14,259.58 L735.14,290 L780.14,290 L757.64,250.4 C760.64,248.24 763.34,245.6 765.74,242.48 C767.78,239.72 769.64,236.24 771.32,232.04 C773,227.84 773.84,222.74 773.84,216.74 C773.84,209.18 772.49,202.49 769.79,196.67 C767.09,190.85 763.34,185.96 758.54,182 C753.74,178.04 748.07,175.04 741.53,173 C734.99,170.96 727.88,169.94 720.2,169.94 L720.2,169.94 L678.8,169.94 L678.8,290 L717.14,290 Z M701.48,275.6 L696.8,275.6 L696.8,184.34 L716.24,184.34 C721.88,184.34 727.1,185.03 731.9,186.41 C736.7,187.79 740.87,189.83 744.41,192.53 C747.95,195.23 750.74,198.56 752.78,202.52 C754.82,206.48 755.84,211.1 755.84,216.38 C755.84,223.94 753.92,230.09 750.08,234.83 C746.24,239.57 741.08,243.08 734.6,245.36 L734.6,245.36 L752.6,275.6 L747.02,275.6 L729.92,246.8 C725.48,247.76 720.92,248.24 716.24,248.24 L716.24,248.24 L701.48,248.24 L701.48,275.6 Z M716.24,243.92 C727.16,243.92 735.71,241.55 741.89,236.81 C748.07,232.07 751.16,225.26 751.16,216.38 C751.16,207.5 748.07,200.66 741.89,195.86 C735.71,191.06 727.16,188.66 716.24,188.66 L716.24,188.66 L701.48,188.66 L701.48,243.92 L716.24,243.92 Z M719.12,228.98 L717.14,228.98 L717.14,202.34 L719.12,202.34 C723.68,202.34 727.55,203.36 730.73,205.4 C733.91,207.44 735.5,210.86 735.5,215.66 C735.5,220.46 733.91,223.88 730.73,225.92 C727.55,227.96 723.68,228.98 719.12,228.98 L719.12,228.98 Z M822.08,290 L822.08,246.8 L846.74,282.8 L871.22,246.8 L871.22,290 L909.56,290 L909.56,169.94 L877.88,169.94 L846.74,216.02 L815.42,169.94 L783.74,169.94 L783.74,290 L822.08,290 Z M806.42,275.6 L801.74,275.6 L801.74,184.34 L806.42,184.34 L846.74,243.56 L886.88,184.34 L891.56,184.34 L891.56,275.6 L886.88,275.6 L886.88,192.98 L846.74,251.66 L806.42,192.98 L806.42,275.6 Z M962.84,290 L962.84,169.94 L922.16,169.94 L922.16,290 L962.84,290 Z M944.84,275.6 L940.16,275.6 L940.16,184.34 L944.84,184.34 L944.84,275.6 Z M1003.34,290 L1007.3,279.2 L1043.66,279.2 L1047.62,290 L1085.42,290 L1039.88,169.94 L1011.08,169.94 L965.54,290 L1003.34,290 Z M992.36,275.6 L987.32,275.6 L1022.06,184.34 L1028.9,184.34 L1063.64,275.6 L1058.6,275.6 L1055.18,266.6 L995.78,266.6 L992.36,275.6 Z M1053.56,262.28 L1025.48,188.66 L997.4,262.28 L1053.56,262.28 Z M1033.58,252.74 L1017.38,252.74 L1025.48,231.68 L1033.58,252.74 Z M142.76,453.06 C150.32,453.06 156.86,452.07 162.38,450.09 C167.9,448.11 172.43,445.41 175.97,441.99 C179.51,438.57 182.12,434.55 183.8,429.93 C185.48,425.31 186.32,420.36 186.32,415.08 C186.32,410.04 185.51,405.48 183.89,401.4 C182.27,397.32 180.29,393.66 177.95,390.42 C175.61,387.18 173.03,384.3 170.21,381.78 C167.39,379.26 164.81,377.04 162.47,375.12 C160.13,373.2 158.15,371.52 156.53,370.08 C154.91,368.64 154.1,367.44 154.1,366.48 C154.1,365.4 154.46,364.56 155.18,363.96 C155.9,363.36 156.74,362.94 157.7,362.7 C158.66,362.46 159.68,362.31 160.76,362.25 C161.84,362.19 162.74,362.16 163.46,362.16 C164.78,362.16 166.04,362.22 167.24,362.34 C168.44,362.46 169.52,362.58 170.48,362.7 C171.68,362.82 172.76,362.94 173.72,363.06 L173.72,363.06 L173.72,329.4 C171.2,329.04 168.62,328.68 165.98,328.32 C163.7,328.08 161.12,327.81 158.24,327.51 C155.36,327.21 152.48,327.06 149.6,327.06 C144.08,327.06 138.89,327.81 134.03,329.31 C129.17,330.81 124.94,333 121.34,335.88 C117.74,338.76 114.92,342.36 112.88,346.68 C110.84,351 109.82,355.98 109.82,361.62 C109.82,366.66 110.66,371.13 112.34,375.03 C114.02,378.93 116.15,382.44 118.73,385.56 C121.31,388.68 124.07,391.44 127.01,393.84 C129.95,396.24 132.71,398.43 135.29,400.41 C137.87,402.39 140,404.19 141.68,405.81 C143.36,407.43 144.2,409.02 144.2,410.58 C144.2,414.66 141.44,416.7 135.92,416.7 C132.8,416.7 129.71,416.52 126.65,416.16 C123.59,415.8 120.86,415.32 118.46,414.72 C115.58,414.24 112.82,413.58 110.18,412.74 L110.18,412.74 L110.18,448.74 C113.06,449.58 116.24,450.3 119.72,450.9 C122.72,451.5 126.17,452.01 130.07,452.43 C133.97,452.85 138.2,453.06 142.76,453.06 Z M141.68,436.14 C139.76,436.14 137.87,436.05 136.01,435.87 C134.15,435.69 132.38,435.48 130.7,435.24 C128.78,435 126.98,434.7 125.3,434.34 L125.3,434.34 L125.3,429.66 C126.98,430.02 128.72,430.32 130.52,430.56 C133.88,431.16 137.6,431.46 141.68,431.46 C148.52,431.46 153.89,429.96 157.79,426.96 C161.69,423.96 163.64,419.58 163.64,413.82 C163.64,410.7 162.77,407.7 161.03,404.82 C159.29,401.94 157.07,399.15 154.37,396.45 C151.67,393.75 148.79,391.08 145.73,388.44 C142.67,385.8 139.79,383.07 137.09,380.25 C134.39,377.43 132.17,374.55 130.43,371.61 C128.69,368.67 127.82,365.52 127.82,362.16 C127.82,355.92 129.92,351.33 134.12,348.39 C138.32,345.45 143.66,343.98 150.14,343.98 C151.22,343.98 152.27,344.01 153.29,344.07 C154.31,344.13 155.24,344.22 156.08,344.34 C157.04,344.46 157.94,344.52 158.78,344.52 L158.78,344.52 L158.78,349.2 C157.82,349.2 156.86,349.14 155.9,349.02 C154.94,348.9 153.95,348.81 152.93,348.75 C151.91,348.69 150.92,348.66 149.96,348.66 C143.84,348.66 139.4,349.83 136.64,352.17 C133.88,354.51 132.5,357.84 132.5,362.16 C132.5,365.04 133.37,367.83 135.11,370.53 C136.85,373.23 139.07,375.93 141.77,378.63 C144.47,381.33 147.35,384 150.41,386.64 C153.47,389.28 156.35,392.04 159.05,394.92 C161.75,397.8 163.97,400.8 165.71,403.92 C167.45,407.04 168.32,410.34 168.32,413.82 C168.32,417.9 167.57,421.35 166.07,424.17 C164.57,426.99 162.56,429.3 160.04,431.1 C157.52,432.9 154.67,434.19 151.49,434.97 C148.31,435.75 145.04,436.14 141.68,436.14 Z M243.56,453.06 C251.12,453.06 257.96,452.1 264.08,450.18 C270.2,448.26 275.45,445.38 279.83,441.54 C284.21,437.7 287.57,432.84 289.91,426.96 C292.25,421.08 293.42,414.18 293.42,406.26 L293.42,406.26 L293.42,329.94 L254.9,329.94 L254.9,404.64 C254.9,408.84 254.03,412.05 252.29,414.27 C250.55,416.49 247.64,417.6 243.56,417.6 C239.48,417.6 236.57,416.49 234.83,414.27 C233.09,412.05 232.22,408.84 232.22,404.64 L232.22,404.64 L232.22,329.94 L193.88,329.94 L193.88,406.26 C193.88,414.18 195.05,421.08 197.39,426.96 C199.73,432.84 203.06,437.7 207.38,441.54 C211.7,445.38 216.92,448.26 223.04,450.18 C229.16,452.1 236,453.06 243.56,453.06 Z M243.56,436.14 C233.36,436.14 225.53,433.47 220.07,428.13 C214.61,422.79 211.88,415.08 211.88,405 L211.88,405 L211.88,344.34 L216.56,344.34 L216.56,405 C216.56,422.64 225.56,431.46 243.56,431.46 C261.56,431.46 270.56,422.64 270.56,405 L270.56,405 L270.56,344.34 L275.42,344.34 L275.42,405 C275.42,415.08 272.66,422.79 267.14,428.13 C261.62,433.47 253.76,436.14 243.56,436.14 Z M401.78,453.06 C407.66,453.06 413.36,452.28 418.88,450.72 C424.4,449.16 429.53,446.94 434.27,444.06 C439.01,441.18 443.3,437.73 447.14,433.71 C450.98,429.69 454.28,425.22 457.04,420.3 L457.04,420.3 L457.04,380.34 L410.78,380.34 L410.78,405.54 L421.58,405.54 C419.18,408.54 416.3,410.91 412.94,412.65 C409.58,414.39 405.86,415.26 401.78,415.26 C398.3,415.26 395.03,414.63 391.97,413.37 C388.91,412.11 386.24,410.37 383.96,408.15 C381.68,405.93 379.88,403.26 378.56,400.14 C377.24,397.02 376.58,393.66 376.58,390.06 C376.58,386.46 377.18,383.1 378.38,379.98 C379.58,376.86 381.23,374.19 383.33,371.97 C385.43,369.75 387.92,368.01 390.8,366.75 C393.68,365.49 396.86,364.86 400.34,364.86 C403.46,364.86 406.64,365.37 409.88,366.39 C413.12,367.41 415.82,368.88 417.98,370.8 L417.98,370.8 L439.76,339.84 C437.12,337.56 433.82,335.46 429.86,333.54 C426.5,331.86 422.36,330.36 417.44,329.04 C412.52,327.72 406.7,327.06 399.98,327.06 C391.34,327.06 383.27,328.71 375.77,332.01 C368.27,335.31 361.79,339.81 356.33,345.51 C350.87,351.21 346.58,357.9 343.46,365.58 C340.34,373.26 338.78,381.42 338.78,390.06 C338.78,398.94 340.43,407.22 343.73,414.9 C347.03,422.58 351.53,429.24 357.23,434.88 C362.93,440.52 369.62,444.96 377.3,448.2 C384.98,451.44 393.14,453.06 401.78,453.06 Z M401.78,436.14 C395.42,436.14 389.45,435 383.87,432.72 C378.29,430.44 373.4,427.29 369.2,423.27 C365,419.25 361.7,414.42 359.3,408.78 C356.9,403.14 355.7,396.9 355.7,390.06 C355.7,383.22 356.87,376.98 359.21,371.34 C361.55,365.7 364.76,360.87 368.84,356.85 C372.92,352.83 377.72,349.68 383.24,347.4 C388.76,345.12 394.7,343.98 401.06,343.98 C403.82,343.98 406.34,344.16 408.62,344.52 C410.9,344.88 412.88,345.3 414.56,345.78 C416.48,346.26 418.22,346.86 419.78,347.58 L419.78,347.58 L416.9,351.72 C415.46,351.24 413.9,350.76 412.22,350.28 C410.78,349.92 409.1,349.56 407.18,349.2 C405.26,348.84 403.22,348.66 401.06,348.66 C395.3,348.66 389.96,349.65 385.04,351.63 C380.12,353.61 375.83,356.43 372.17,360.09 C368.51,363.75 365.63,368.13 363.53,373.23 C361.43,378.33 360.38,383.94 360.38,390.06 C360.38,396.18 361.46,401.79 363.62,406.89 C365.78,411.99 368.75,416.37 372.53,420.03 C376.31,423.69 380.69,426.51 385.67,428.49 C390.65,430.47 396.02,431.46 401.78,431.46 C408.98,431.46 415.55,429.84 421.49,426.6 C427.43,423.36 432.26,418.98 435.98,413.46 L435.98,413.46 L435.98,395.46 L421.58,395.46 L421.58,391.14 L440.66,391.14 L440.66,414.72 C436.46,421.2 431,426.39 424.28,430.29 C417.56,434.19 410.06,436.14 401.78,436.14 Z M494.84,450 L498.8,439.2 L535.16,439.2 L539.12,450 L576.92,450 L531.38,329.94 L502.58,329.94 L457.04,450 L494.84,450 Z M483.86,435.6 L478.82,435.6 L513.56,344.34 L520.4,344.34 L555.14,435.6 L550.1,435.6 L546.68,426.6 L487.28,426.6 L483.86,435.6 Z M545.06,422.28 L516.98,348.66 L488.9,422.28 L545.06,422.28 Z M525.08,412.74 L508.88,412.74 L516.98,391.68 L525.08,412.74 Z M608.96,453.06 C616.52,453.06 623.06,452.07 628.58,450.09 C634.1,448.11 638.63,445.41 642.17,441.99 C645.71,438.57 648.32,434.55 650,429.93 C651.68,425.31 652.52,420.36 652.52,415.08 C652.52,410.04 651.71,405.48 650.09,401.4 C648.47,397.32 646.49,393.66 644.15,390.42 C641.81,387.18 639.23,384.3 636.41,381.78 C633.59,379.26 631.01,377.04 628.67,375.12 C626.33,373.2 624.35,371.52 622.73,370.08 C621.11,368.64 620.3,367.44 620.3,366.48 C620.3,365.4 620.66,364.56 621.38,363.96 C622.1,363.36 622.94,362.94 623.9,362.7 C624.86,362.46 625.88,362.31 626.96,362.25 C628.04,362.19 628.94,362.16 629.66,362.16 C630.98,362.16 632.24,362.22 633.44,362.34 C634.64,362.46 635.72,362.58 636.68,362.7 C637.88,362.82 638.96,362.94 639.92,363.06 L639.92,363.06 L639.92,329.4 C637.4,329.04 634.82,328.68 632.18,328.32 C629.9,328.08 627.32,327.81 624.44,327.51 C621.56,327.21 618.68,327.06 615.8,327.06 C610.28,327.06 605.09,327.81 600.23,329.31 C595.37,330.81 591.14,333 587.54,335.88 C583.94,338.76 581.12,342.36 579.08,346.68 C577.04,351 576.02,355.98 576.02,361.62 C576.02,366.66 576.86,371.13 578.54,375.03 C580.22,378.93 582.35,382.44 584.93,385.56 C587.51,388.68 590.27,391.44 593.21,393.84 C596.15,396.24 598.91,398.43 601.49,400.41 C604.07,402.39 606.2,404.19 607.88,405.81 C609.56,407.43 610.4,409.02 610.4,410.58 C610.4,414.66 607.64,416.7 602.12,416.7 C599,416.7 595.91,416.52 592.85,416.16 C589.79,415.8 587.06,415.32 584.66,414.72 C581.78,414.24 579.02,413.58 576.38,412.74 L576.38,412.74 L576.38,448.74 C579.26,449.58 582.44,450.3 585.92,450.9 C588.92,451.5 592.37,452.01 596.27,452.43 C600.17,452.85 604.4,453.06 608.96,453.06 Z M607.88,436.14 C605.96,436.14 604.07,436.05 602.21,435.87 C600.35,435.69 598.58,435.48 596.9,435.24 C594.98,435 593.18,434.7 591.5,434.34 L591.5,434.34 L591.5,429.66 C593.18,430.02 594.92,430.32 596.72,430.56 C600.08,431.16 603.8,431.46 607.88,431.46 C614.72,431.46 620.09,429.96 623.99,426.96 C627.89,423.96 629.84,419.58 629.84,413.82 C629.84,410.7 628.97,407.7 627.23,404.82 C625.49,401.94 623.27,399.15 620.57,396.45 C617.87,393.75 614.99,391.08 611.93,388.44 C608.87,385.8 605.99,383.07 603.29,380.25 C600.59,377.43 598.37,374.55 596.63,371.61 C594.89,368.67 594.02,365.52 594.02,362.16 C594.02,355.92 596.12,351.33 600.32,348.39 C604.52,345.45 609.86,343.98 616.34,343.98 C617.42,343.98 618.47,344.01 619.49,344.07 C620.51,344.13 621.44,344.22 622.28,344.34 C623.24,344.46 624.14,344.52 624.98,344.52 L624.98,344.52 L624.98,349.2 C624.02,349.2 623.06,349.14 622.1,349.02 C621.14,348.9 620.15,348.81 619.13,348.75 C618.11,348.69 617.12,348.66 616.16,348.66 C610.04,348.66 605.6,349.83 602.84,352.17 C600.08,354.51 598.7,357.84 598.7,362.16 C598.7,365.04 599.57,367.83 601.31,370.53 C603.05,373.23 605.27,375.93 607.97,378.63 C610.67,381.33 613.55,384 616.61,386.64 C619.67,389.28 622.55,392.04 625.25,394.92 C627.95,397.8 630.17,400.8 631.91,403.92 C633.65,407.04 634.52,410.34 634.52,413.82 C634.52,417.9 633.77,421.35 632.27,424.17 C630.77,426.99 628.76,429.3 626.24,431.1 C623.72,432.9 620.87,434.19 617.69,434.97 C614.51,435.75 611.24,436.14 607.88,436.14 Z M768.62,450 L768.62,418.5 L734.96,418.5 L734.96,404.64 L766.82,404.64 L766.82,374.76 L734.96,374.76 L734.96,361.44 L767.36,361.44 L767.36,329.94 L696.62,329.94 L696.62,450 L768.62,450 Z M755.3,435.6 L714.62,435.6 L714.62,344.34 L755.3,344.34 L755.3,348.66 L719.3,348.66 L719.3,387.54 L753.5,387.54 L753.5,391.86 L719.3,391.86 L719.3,431.28 L755.3,431.28 L755.3,435.6 Z M888.5,450 L888.5,418.5 L855.38,418.5 L855.38,329.94 L815.42,329.94 L815.42,450 L888.5,450 Z M878.42,435.6 L833.42,435.6 L833.42,344.34 L838.1,344.34 L838.1,431.28 L878.42,431.28 L878.42,435.6 Z M943.94,453.06 C951.5,453.06 958.34,452.1 964.46,450.18 C970.58,448.26 975.83,445.38 980.21,441.54 C984.59,437.7 987.95,432.84 990.29,426.96 C992.63,421.08 993.8,414.18 993.8,406.26 L993.8,406.26 L993.8,329.94 L955.28,329.94 L955.28,404.64 C955.28,408.84 954.41,412.05 952.67,414.27 C950.93,416.49 948.02,417.6 943.94,417.6 C939.86,417.6 936.95,416.49 935.21,414.27 C933.47,412.05 932.6,408.84 932.6,404.64 L932.6,404.64 L932.6,329.94 L894.26,329.94 L894.26,406.26 C894.26,414.18 895.43,421.08 897.77,426.96 C900.11,432.84 903.44,437.7 907.76,441.54 C912.08,445.38 917.3,448.26 923.42,450.18 C929.54,452.1 936.38,453.06 943.94,453.06 Z M943.94,436.14 C933.74,436.14 925.91,433.47 920.45,428.13 C914.99,422.79 912.26,415.08 912.26,405 L912.26,405 L912.26,344.34 L916.94,344.34 L916.94,405 C916.94,422.64 925.94,431.46 943.94,431.46 C961.94,431.46 970.94,422.64 970.94,405 L970.94,405 L970.94,344.34 L975.8,344.34 L975.8,405 C975.8,415.08 973.04,422.79 967.52,428.13 C962,433.47 954.14,436.14 943.94,436.14 Z M1067.96,453.06 C1074.92,453.06 1081.1,452.34 1086.5,450.9 C1091.9,449.46 1096.52,447.9 1100.36,446.22 C1104.8,444.18 1108.64,441.84 1111.88,439.2 L1111.88,439.2 L1092.98,405.9 C1091.18,407.7 1089.08,409.26 1086.68,410.58 C1084.64,411.78 1082.12,412.86 1079.12,413.82 C1076.12,414.78 1072.7,415.26 1068.86,415.26 C1065.02,415.26 1061.48,414.6 1058.24,413.28 C1055,411.96 1052.18,410.16 1049.78,407.88 C1047.38,405.6 1045.49,402.93 1044.11,399.87 C1042.73,396.81 1042.04,393.54 1042.04,390.06 C1042.04,386.58 1042.7,383.31 1044.02,380.25 C1045.34,377.19 1047.17,374.52 1049.51,372.24 C1051.85,369.96 1054.58,368.16 1057.7,366.84 C1060.82,365.52 1064.24,364.86 1067.96,364.86 C1071.56,364.86 1074.77,365.31 1077.59,366.21 C1080.41,367.11 1082.84,368.04 1084.88,369 C1087.16,370.32 1089.26,371.7 1091.18,373.14 L1091.18,373.14 L1110.08,339.84 C1106.84,337.56 1103,335.46 1098.56,333.54 C1094.72,331.86 1090.13,330.36 1084.79,329.04 C1079.45,327.72 1073.36,327.06 1066.52,327.06 C1057.88,327.06 1049.72,328.53 1042.04,331.47 C1034.36,334.41 1027.64,338.64 1021.88,344.16 C1016.12,349.68 1011.56,356.31 1008.2,364.05 C1004.84,371.79 1003.16,380.46 1003.16,390.06 C1003.16,399.42 1004.78,407.97 1008.02,415.71 C1011.26,423.45 1015.76,430.08 1021.52,435.6 C1027.28,441.12 1034.12,445.41 1042.04,448.47 C1049.96,451.53 1058.6,453.06 1067.96,453.06 Z M1068.5,436.14 C1062.02,436.14 1055.9,435.06 1050.14,432.9 C1044.38,430.74 1039.34,427.65 1035.02,423.63 C1030.7,419.61 1027.31,414.78 1024.85,409.14 C1022.39,403.5 1021.16,397.14 1021.16,390.06 C1021.16,383.1 1022.45,376.77 1025.03,371.07 C1027.61,365.37 1031.03,360.51 1035.29,356.49 C1039.55,352.47 1044.47,349.38 1050.05,347.22 C1055.63,345.06 1061.48,343.98 1067.6,343.98 C1071.08,343.98 1074.14,344.22 1076.78,344.7 C1079.42,345.18 1081.76,345.72 1083.8,346.32 C1085.96,347.04 1088,347.82 1089.92,348.66 L1089.92,348.66 L1087.4,352.98 C1085.96,352.14 1084.22,351.42 1082.18,350.82 C1080.5,350.22 1078.43,349.71 1075.97,349.29 C1073.51,348.87 1070.72,348.66 1067.6,348.66 C1061.24,348.66 1055.48,349.74 1050.32,351.9 C1045.16,354.06 1040.78,357 1037.18,360.72 C1033.58,364.44 1030.79,368.82 1028.81,373.86 C1026.83,378.9 1025.84,384.3 1025.84,390.06 C1025.84,395.82 1026.83,401.22 1028.81,406.26 C1030.79,411.3 1033.61,415.68 1037.27,419.4 C1040.93,423.12 1045.4,426.06 1050.68,428.22 C1055.96,430.38 1061.9,431.46 1068.5,431.46 C1071.86,431.46 1074.8,431.19 1077.32,430.65 C1079.84,430.11 1082,429.48 1083.8,428.76 C1085.84,428.04 1087.64,427.14 1089.2,426.06 L1089.2,426.06 L1091.72,430.38 C1089.92,431.46 1087.88,432.42 1085.6,433.26 C1083.56,433.98 1081.1,434.64 1078.22,435.24 C1075.34,435.84 1072.1,436.14 1068.5,436.14 Z M1188.38,450 L1188.38,418.5 L1154.72,418.5 L1154.72,404.64 L1186.58,404.64 L1186.58,374.76 L1154.72,374.76 L1154.72,361.44 L1187.12,361.44 L1187.12,329.94 L1116.38,329.94 L1116.38,450 L1188.38,450 Z M1175.06,435.6 L1134.38,435.6 L1134.38,344.34 L1175.06,344.34 L1175.06,348.66 L1139.06,348.66 L1139.06,387.54 L1173.26,387.54 L1173.26,391.86 L1139.06,391.86 L1139.06,431.28 L1175.06,431.28 L1175.06,435.6 Z" id="Risparmiasugaseluce" fill="#CD2341" fill-rule="nonzero" filter="url(#filter-5)"></path><g id="risparmiasugaseluce" fill-rule="nonzero"><use fill="black" fill-opacity="1" filter="url(#filter-7)" xlink:href="#path-6"></use><use fill="#CD2341" xlink:href="#path-6"></use></g></g></g></svg> 