<svg height="128" viewBox="0 0 128 128" width="128" xmlns="http://www.w3.org/2000/svg"><g fill="none" fill-rule="evenodd"><rect fill="#f5efe0" height="128" rx="21.333333" width="128"/><path d="m37.8072916 60.984375c10.46875 0 16.6666667-6.1979167 16.6666667-16.4322917v-4.3229166h-16.25v5.859375h8.59375l-.0260417.546875c-.2083333 4.6354166-3.7239583 7.6822916-8.8541666 7.6822916-6.25 0-10.2083334-4.8177083-10.2083334-12.96875v-.0260416c0-7.96875 3.7239584-12.5520834 9.921875-12.5520834 4.2447917 0 7.2395834 2.109375 8.4895834 5.7552084l.1041666.2604166h7.890625l-.078125-.3645833c-1.25-7.0572917-7.3958333-12.3177083-16.4322916-12.3177083-11.015625 0-17.9166667 7.265625-17.9166667 19.296875v.0260416c0 12.2395834 6.875 19.5572917 18.0989583 19.5572917zm28.3559028-.2083333c3.671875 0 6.640625-1.7447917 8.2291667-4.609375h.15625v4.1666666h7.6041667v-19.140625c0-5.625-4.6614584-9.3489583-11.875-9.3489583-7.3697917 0-11.796875 3.6979167-12.2135417 8.8541667l-.0260417.3125h6.953125l.0520834-.234375c.3645833-1.796875 2.0833333-3.125 4.921875-3.125 2.96875 0 4.5833333 1.5364583 4.5833333 4.0104166v1.71875l-6.9010417.4166667c-6.9270833.4427083-10.859375 3.4114583-10.859375 8.4895833v.0520834c0 4.921875 3.7760417 8.4375 9.375 8.4375zm2.4739584-5.546875c-2.6302084 0-4.3229167-1.2239584-4.3229167-3.28125v-.0520834c0-1.9791666 1.5364583-3.2291666 4.4791667-3.4114583l5.7552083-.3645833v2.0052083c0 2.9166667-2.5 5.1041667-5.9114583 5.1041667zm29.0069444 5.6770833c7.1874998 0 12.2135418-3.59375 12.2135418-9.0625v-.0260417c0-4.1145833-2.395833-6.40625-8.229167-7.6302083l-4.7395831-1.015625c-2.8125-.5989583-3.7760417-1.5364583-3.7760417-2.96875v-.0260417c0-1.796875 1.640625-2.96875 4.2708334-2.96875 2.8125004 0 4.4531254 1.5104167 4.7135414 3.515625l.026042.2083334h7.005208v-.2604167c-.182291-4.8958333-4.322916-8.828125-11.7447914-8.828125-7.109375 0-11.6927084 3.4375-11.6927084 8.75v.0260417c0 4.1666666 2.734375 6.875 8.1510417 8.0208333l4.7395833.9895833c2.7343748.5989584 3.6718748 1.4583334 3.6718748 2.9427084v.0260416c0 1.796875-1.744791 2.9166667-4.6093748 2.9166667-3.046875 0-4.6875-1.2760417-5.1822916-3.4635417l-.0520834-.234375h-7.421875l.0260417.234375c.5989583 5.2864584 4.8958333 8.8541667 12.6302083 8.8541667zm-63.624132 39.427083v-6.4843747h-16.4322916v-31.09375h-7.86458336v37.5781247zm12.6267362.572917c4.21875 0 7.0833333-1.9791667 8.515625-5.1822917h.15625v4.6093747h7.6041666v-27.9166663h-7.6041666v16.0416666c0 3.6458334-2.1614584 6.1458334-5.5729167 6.1458334s-5.1302083-2.109375-5.1302083-5.7552084v-16.4322916h-7.6041667v18.0208333c0 6.5364583 3.4895833 10.46875 9.6354167 10.46875zm33.0954861 0c7.4479167 0 12.265625-4.6354167 12.6302083-10.7291667v-.15625h-7.0833333l-.0260417.234375c-.5208333 2.8125-2.421875 4.6875-5.46875 4.6875-3.75 0-6.09375-3.0989583-6.09375-8.5677083v-.0260417c0-5.3385416 2.34375-8.5416666 6.0677084-8.5416666 3.1510416 0 5 2.03125 5.46875 4.6875l.0520833.234375h7.0572917v-.1822917c-.2864584-6.0416667-5.1041667-10.703125-12.6822917-10.703125-8.359375 0-13.6979167 5.546875-13.6979167 14.4791667v.0260416c0 9.0104167 5.2604167 14.5572917 13.7760417 14.5572917zm28.1215275 0c7.96875 0 11.822917-4.7135417 12.682292-8.828125l.078125-.2864583h-6.979167l-.052083.15625c-.546875 1.5625-2.447917 3.28125-5.572917 3.28125-3.880208 0-6.302083-2.6041667-6.380208-7.0572917h19.21875v-2.34375c0-8.4375-5.130208-13.984375-13.307292-13.984375-8.177083 0-13.411458 5.6770833-13.411458 14.5572917v.0260416c0 8.9322917 5.1822916 14.4791667 13.723958 14.4791667zm5.703125-17.5260417h-11.848958c.494792-3.7760416 2.838542-5.859375 5.963542-5.859375 3.151041 0 5.416666 2.0052084 5.885416 5.859375z" fill="#000504" fill-rule="nonzero"/></g></svg>